<?xml version="1.0" encoding="UTF-8" standalone="no"?>
<svg
   height="512"
   viewBox="0 0 128 128"
   width="512"
   version="1.1"
   id="svg75"
   sodipodi:docname="grass-context.svg"
   inkscape:version="1.1.2 (0a00cf5339, 2022-02-04)"
   xmlns:inkscape="http://www.inkscape.org/namespaces/inkscape"
   xmlns:sodipodi="http://sodipodi.sourceforge.net/DTD/sodipodi-0.dtd"
   xmlns="http://www.w3.org/2000/svg"
   xmlns:svg="http://www.w3.org/2000/svg">
  <defs
     id="defs79" />
  <sodipodi:namedview
     id="namedview77"
     pagecolor="#ffffff"
     bordercolor="#999999"
     borderopacity="1"
     inkscape:pageshadow="0"
     inkscape:pageopacity="0"
     inkscape:pagecheckerboard="0"
     showgrid="false"
     inkscape:zoom="3.6289062"
     inkscape:cx="193.99785"
     inkscape:cy="272.80948"
     inkscape:window-width="3832"
     inkscape:window-height="2107"
     inkscape:window-x="0"
     inkscape:window-y="45"
     inkscape:window-maximized="1"
     inkscape:current-layer="g30212" />
  <g
     id="g12410"
     transform="translate(6.4208239,14.139919)">
    <g
       id="g26678"
       transform="matrix(2.0906058,0,0,2.0906058,-46.871844,-59.94995)">
      <g
         id="g30212"
         transform="translate(-3.4725336,2.8994647)">
        <rect
           style="fill:#fdfffe;fill-opacity:1;stroke-width:0.847328"
           id="rect1127"
           width="61.226273"
           height="61.226273"
           x="22.82148"
           y="19.012859" />
        <text
           xml:space="preserve"
           style="font-size:32px;line-height:1.25;font-family:'Noto Sans';-inkscape-font-specification:'Noto Sans';stroke-width:0.25"
           x="25.146597"
           y="59.737995"
           id="text2367"><tspan
             sodipodi:role="line"
             id="tspan2365"
             style="font-style:normal;font-variant:normal;font-weight:normal;font-stretch:normal;font-size:32px;font-family:'Noto Serif';-inkscape-font-specification:'Noto Serif';fill:#006400;fill-opacity:1;stroke-width:0.25"
             x="25.146597"
             y="59.737995">F[  ]</tspan></text>
        <g
           id="g8188"
           transform="matrix(0.74914105,0,0,0.74914105,18.500514,14.722807)">
          <path
             d="m 44.038651,57.362676 h 32.68374 v 4.39642 h -32.68374 z"
             fill="#b1a05a"
             id="path61"
             style="stroke-width:0.26252" />
          <path
             d="m 47.90137,34.686984 3.080935,8.112652 a 25.905998,25.905998 0 0 1 1.663852,8.08851 l 0.277221,6.47453 h 7.457143 l -0.802786,-4.95454 A 25.908099,25.908099 0 0 0 47.90137,34.688034 Z"
             fill="#4dbc5a"
             id="path63"
             style="stroke-width:0.26252" />
          <path
             d="m 60.380521,57.362676 0.478311,-5.76179 a 44.878844,44.878844 0 0 1 8.316109,-22.52553 l -0.940347,7.14763 a 44.884357,44.884357 0 0 0 -0.323162,8.18144 l 0.672839,12.95825 z"
             fill="#4dbc5a"
             id="path65"
             style="stroke-width:0.26252" />
          <g
             fill="#389859"
             id="g73"
             transform="matrix(0.26252,0,0,0.26252,43.579241,28.616734)">
            <path
               d="M 48.648,56.48 A 98.664,98.664 0 0 1 60.942,90.627 L 64,109.5 65.822,87.552 A 170.959,170.959 0 0 1 72.489,52.48 108.559,108.559 0 0 0 45,9.094 l 1.789,7.6 a 108.579,108.579 0 0 1 1.859,39.786 z"
               id="path67" />
            <path
               d="M 31.309,85.654 A 121.044,121.044 0 0 0 7.456,50.6 L 1.75,44.76 A 121.049,121.049 0 0 1 15.2,105.172 L 15.029,109.5 H 35.594 L 34.917,93.7 Z"
               id="path69" />
            <path
               d="m 126.25,33.938 a 127.749,127.749 0 0 0 -32.213,52.2 L 95.25,109.5 h 23.062 l -0.4,-2.184 A 127.762,127.762 0 0 1 124.949,37.2 Z"
               id="path71" />
          </g>
        </g>
      </g>
    </g>
  </g>
</svg>
